<!--?xml version="1.0" standalone="no"?-->
              <svg id="sw-js-blob-svg" viewBox="0 0 100 100" xmlns="http://www.w3.org/2000/svg" version="1.1">
                    <defs> 
                        <linearGradient id="sw-gradient" x1="0" x2="1" y1="1" y2="0">
                            <stop id="stop1" stop-color="rgba(31, 30, 38, 1)" offset="0%"></stop>
                            <stop id="stop2" stop-color="rgba(3, 95, 249, 1)" offset="100%"></stop>
                        </linearGradient>
                    </defs>
                <path fill="url(#sw-gradient)" d="M26.9,-35.7C34.5,-31.6,39.9,-23.1,41.9,-14.2C43.8,-5.4,42.4,4,38.7,11.7C35,19.4,29,25.5,22.2,29.7C15.3,33.8,7.7,36,-0.5,36.6C-8.6,37.3,-17.2,36.4,-24.7,32.5C-32.1,28.5,-38.4,21.5,-40.4,13.6C-42.4,5.6,-40.1,-3.4,-37,-11.7C-33.8,-20,-29.8,-27.7,-23.4,-32.2C-17.1,-36.7,-8.6,-38.1,0.6,-38.9C9.7,-39.6,19.4,-39.8,26.9,-35.7Z" width="100%" height="100%" transform="translate(50 50)" stroke-width="0" style="transition: all 0.3s ease 0s;" stroke="url(#sw-gradient)"></path>
              </svg>