<svg xmlns="http://www.w3.org/2000/svg" xmlns:xlink="http://www.w3.org/1999/xlink" width="500" zoomAndPan="magnify" viewBox="0 0 375 374.999991" height="500" preserveAspectRatio="xMidYMid meet" version="1.0"><defs><clipPath id="2ec8bc3538"><path d="M 24.132812 44.625 L 223 44.625 L 223 330 L 24.132812 330 Z M 24.132812 44.625 " clip-rule="nonzero"/></clipPath><clipPath id="bf402b5d10"><path d="M 86 44.625 L 288 44.625 L 288 330.375 L 86 330.375 Z M 86 44.625 " clip-rule="nonzero"/></clipPath><clipPath id="6a08732d3a"><path d="M 149 44.625 L 351.132812 44.625 L 351.132812 330.375 L 149 330.375 Z M 149 44.625 " clip-rule="nonzero"/></clipPath></defs><g clip-path="url(#2ec8bc3538)"><path fill="#1f1e26" d="M 24.355469 44.96875 L 24.132812 329.921875 L 222.164062 187.726562 Z M 24.355469 44.96875 " fill-opacity="1" fill-rule="nonzero"/></g><g clip-path="url(#bf402b5d10)"><path fill="#1f1e26" d="M 90.933594 49.144531 L 282.972656 187.726562 L 90.820312 325.628906 L 90.933594 49.144531 M 90.933594 44.628906 C 90.253906 44.628906 89.578125 44.742188 88.898438 45.082031 C 87.429688 45.871094 86.410156 47.453125 86.410156 49.144531 L 86.296875 325.628906 C 86.296875 327.324219 87.203125 328.90625 88.785156 329.695312 C 89.464844 330.035156 90.140625 330.148438 90.820312 330.148438 C 91.722656 330.148438 92.628906 329.808594 93.417969 329.246094 L 285.574219 191.339844 C 286.703125 190.4375 287.496094 189.082031 287.496094 187.726562 C 287.496094 186.257812 286.816406 184.902344 285.574219 184.113281 L 93.644531 45.53125 C 92.855469 44.96875 91.949219 44.628906 90.933594 44.628906 Z M 90.933594 44.628906 " fill-opacity="1" fill-rule="nonzero"/></g><g clip-path="url(#6a08732d3a)"><path fill="#1f1e26" d="M 154.683594 49.371094 L 346.609375 187.953125 L 154.457031 325.855469 L 154.683594 49.371094 M 154.683594 44.855469 C 154.003906 44.855469 153.324219 44.96875 152.648438 45.304688 C 151.179688 46.097656 150.160156 47.679688 150.160156 49.371094 L 149.933594 325.855469 C 149.933594 327.550781 150.839844 329.132812 152.421875 329.921875 C 153.101562 330.261719 153.777344 330.375 154.457031 330.375 C 155.359375 330.375 156.265625 330.035156 157.054688 329.46875 L 349.210938 191.566406 C 350.339844 190.664062 351.132812 189.308594 351.132812 187.953125 C 351.132812 186.484375 350.453125 185.128906 349.210938 184.339844 L 157.394531 45.757812 C 156.605469 45.191406 155.585938 44.855469 154.683594 44.855469 Z M 154.683594 44.855469 " fill-opacity="1" fill-rule="nonzero"/></g></svg>